<svg width="127" height="40" viewBox="0 0 127 40" fill="none" xmlns="http://www.w3.org/2000/svg">
<path d="M0.748059 39.5V11.756H7.27606V39.5H0.748059ZM0.748059 7.34V1.916H7.27606V7.34H0.748059ZM14.0463 39.5V11.756H20.5743V16.028C21.5343 14.396 22.4943 13.228 23.4543 12.524C24.4143 11.788 25.4703 11.42 26.6223 11.42C26.8143 11.42 26.9743 11.436 27.1023 11.468C27.2623 11.468 27.4383 11.484 27.6303 11.516V18.284C27.2463 18.124 26.8143 17.996 26.3343 17.9C25.8863 17.772 25.4223 17.708 24.9423 17.708C24.0783 17.708 23.2943 17.916 22.5903 18.332C21.8863 18.748 21.2143 19.436 20.5743 20.396V39.5H14.0463ZM33.6082 39.5V16.316H30.6322V11.756H33.6082V9.98C33.6082 8.316 33.7522 6.876 34.0402 5.66C34.3602 4.412 35.0002 3.452 35.9602 2.78C36.9522 2.108 38.4402 1.772 40.4242 1.772C41.0322 1.772 41.6082 1.804 42.1522 1.868C42.6962 1.9 43.3042 1.964 43.9762 2.06V6.908C43.7202 6.844 43.4162 6.796 43.0642 6.764C42.7442 6.7 42.4402 6.668 42.1522 6.668C41.3842 6.668 40.8562 6.908 40.5682 7.388C40.2802 7.868 40.1362 8.572 40.1362 9.5V11.756H43.9762V16.316H40.1362V39.5H33.6082ZM53.6583 39.932C52.4103 39.932 51.3383 39.612 50.4423 38.972C49.5463 38.3 48.8583 37.468 48.3783 36.476C47.8983 35.452 47.6583 34.396 47.6583 33.308C47.6583 31.58 47.9783 30.124 48.6183 28.94C49.2583 27.756 50.1063 26.764 51.1623 25.964C52.2183 25.164 53.4183 24.476 54.7623 23.9C56.1063 23.292 57.4663 22.748 58.8423 22.268V19.868C58.8423 19.068 58.7783 18.396 58.6503 17.852C58.5543 17.308 58.3463 16.892 58.0263 16.604C57.7383 16.316 57.2743 16.172 56.6343 16.172C56.0903 16.172 55.6423 16.3 55.2903 16.556C54.9703 16.812 54.7303 17.18 54.5703 17.66C54.4423 18.108 54.3623 18.636 54.3303 19.244L54.2343 20.924L48.0423 20.684C48.1383 17.484 48.9223 15.132 50.3943 13.628C51.8983 12.092 54.1703 11.324 57.2103 11.324C59.9943 11.324 62.0103 12.092 63.2583 13.628C64.5383 15.164 65.1783 17.244 65.1783 19.868V32.684C65.1783 33.708 65.1943 34.636 65.2263 35.468C65.2903 36.3 65.3543 37.052 65.4183 37.724C65.5143 38.396 65.5943 38.988 65.6583 39.5H59.8023C59.7063 38.86 59.5783 38.14 59.4183 37.34C59.2903 36.508 59.1943 35.9 59.1303 35.516C58.8103 36.636 58.2023 37.66 57.3063 38.588C56.4103 39.484 55.1943 39.932 53.6583 39.932ZM56.0583 35.084C56.4743 35.084 56.8583 34.988 57.2103 34.796C57.5943 34.572 57.9303 34.316 58.2183 34.028C58.5063 33.74 58.7143 33.484 58.8423 33.26V25.532C58.1383 25.948 57.4663 26.364 56.8263 26.78C56.2183 27.196 55.6743 27.66 55.1943 28.172C54.7463 28.652 54.3943 29.18 54.1383 29.756C53.9143 30.332 53.8023 31.004 53.8023 31.772C53.8023 32.796 53.9943 33.612 54.3783 34.22C54.7943 34.796 55.3543 35.084 56.0583 35.084ZM77.6654 39.932C75.4574 39.932 73.7774 39.148 72.6254 37.58C71.5054 36.012 70.9454 33.5 70.9454 30.044V21.548C70.9454 19.628 71.1534 17.9 71.5694 16.364C72.0174 14.828 72.7214 13.612 73.6814 12.716C74.6414 11.788 75.9374 11.324 77.5694 11.324C78.5614 11.324 79.4734 11.532 80.3054 11.948C81.1694 12.332 81.9534 12.844 82.6574 13.484V0.619997H89.1854V39.5H82.6574V37.532C81.9214 38.268 81.1374 38.86 80.3054 39.308C79.4734 39.724 78.5934 39.932 77.6654 39.932ZM80.0654 35.42C80.4174 35.42 80.8174 35.34 81.2654 35.18C81.7134 35.02 82.1774 34.796 82.6574 34.508V16.7C82.2734 16.444 81.8574 16.236 81.4094 16.076C80.9614 15.884 80.4974 15.788 80.0174 15.788C79.0894 15.788 78.4334 16.22 78.0494 17.084C77.6974 17.916 77.5214 18.94 77.5214 20.156V30.524C77.5214 31.452 77.5854 32.284 77.7134 33.02C77.8414 33.756 78.0814 34.348 78.4334 34.796C78.8174 35.212 79.3614 35.42 80.0654 35.42ZM95.9849 39.5V0.619997H102.465V39.5H95.9849ZM117.487 39.932C115.407 39.932 113.711 39.548 112.399 38.78C111.087 37.98 110.111 36.828 109.471 35.324C108.863 33.788 108.559 31.948 108.559 29.804V21.452C108.559 19.244 108.863 17.388 109.471 15.884C110.111 14.38 111.087 13.244 112.399 12.476C113.743 11.708 115.439 11.324 117.487 11.324C119.695 11.324 121.407 11.74 122.623 12.572C123.871 13.404 124.751 14.62 125.263 16.22C125.807 17.788 126.079 19.708 126.079 21.98V25.916H115.039V31.388C115.039 32.284 115.119 33.02 115.279 33.596C115.471 34.172 115.759 34.588 116.143 34.844C116.527 35.1 116.991 35.228 117.535 35.228C118.111 35.228 118.575 35.1 118.927 34.844C119.279 34.556 119.535 34.156 119.695 33.644C119.855 33.1 119.935 32.428 119.935 31.628V29.324H126.031V31.196C126.031 34.012 125.327 36.172 123.919 37.676C122.511 39.18 120.367 39.932 117.487 39.932ZM115.039 22.7H119.935V20.06C119.935 19.1 119.855 18.332 119.695 17.756C119.535 17.148 119.279 16.716 118.927 16.46C118.575 16.172 118.079 16.028 117.439 16.028C116.863 16.028 116.399 16.172 116.047 16.46C115.695 16.748 115.439 17.228 115.279 17.9C115.119 18.572 115.039 19.532 115.039 20.78V22.7Z" fill="black"/>
</svg>
