<svg width="201" height="72" viewBox="0 0 201 72" fill="none" xmlns="http://www.w3.org/2000/svg">
<path d="M64.7686 10.8959L45.2849 9.62561L34.273 19.9152L44.5256 29.8111L64.7686 10.8959Z" fill="#FF5532"/>
<path d="M3.25293 62.5197L22.7376 61.2626L32.1742 49.6468L20.6 41.1665L3.25293 62.5197Z" fill="#FF5532"/>
<path d="M20.4005 34.6824L0.0605469 10.8959H20.4005L41.1393 34.6824H20.4005Z" fill="black"/>
<path d="M49.3214 62.5197L28.9814 38.7332H49.3214L70.0602 62.5197H49.3214Z" fill="black"/>
<path d="M72.7481 57.5V29.756H79.2761V57.5H72.7481ZM72.7481 25.34V19.916H79.2761V25.34H72.7481ZM86.0463 57.5V29.756H92.5743V34.028C93.5343 32.396 94.4943 31.228 95.4543 30.524C96.4143 29.788 97.4703 29.42 98.6223 29.42C98.8143 29.42 98.9743 29.436 99.1023 29.468C99.2623 29.468 99.4383 29.484 99.6303 29.516V36.284C99.2463 36.124 98.8143 35.996 98.3343 35.9C97.8863 35.772 97.4223 35.708 96.9423 35.708C96.0783 35.708 95.2943 35.916 94.5903 36.332C93.8863 36.748 93.2143 37.436 92.5743 38.396V57.5H86.0463ZM105.608 57.5V34.316H102.632V29.756H105.608V27.98C105.608 26.316 105.752 24.876 106.04 23.66C106.36 22.412 107 21.452 107.96 20.78C108.952 20.108 110.44 19.772 112.424 19.772C113.032 19.772 113.608 19.804 114.152 19.868C114.696 19.9 115.304 19.964 115.976 20.06V24.908C115.72 24.844 115.416 24.796 115.064 24.764C114.744 24.7 114.44 24.668 114.152 24.668C113.384 24.668 112.856 24.908 112.568 25.388C112.28 25.868 112.136 26.572 112.136 27.5V29.756H115.976V34.316H112.136V57.5H105.608ZM125.658 57.932C124.41 57.932 123.338 57.612 122.442 56.972C121.546 56.3 120.858 55.468 120.378 54.476C119.898 53.452 119.658 52.396 119.658 51.308C119.658 49.58 119.978 48.124 120.618 46.94C121.258 45.756 122.106 44.764 123.162 43.964C124.218 43.164 125.418 42.476 126.762 41.9C128.106 41.292 129.466 40.748 130.842 40.268V37.868C130.842 37.068 130.778 36.396 130.65 35.852C130.554 35.308 130.346 34.892 130.026 34.604C129.738 34.316 129.274 34.172 128.634 34.172C128.09 34.172 127.642 34.3 127.29 34.556C126.97 34.812 126.73 35.18 126.57 35.66C126.442 36.108 126.362 36.636 126.33 37.244L126.234 38.924L120.042 38.684C120.138 35.484 120.922 33.132 122.394 31.628C123.898 30.092 126.17 29.324 129.21 29.324C131.994 29.324 134.01 30.092 135.258 31.628C136.538 33.164 137.178 35.244 137.178 37.868V50.684C137.178 51.708 137.194 52.636 137.226 53.468C137.29 54.3 137.354 55.052 137.418 55.724C137.514 56.396 137.594 56.988 137.658 57.5H131.802C131.706 56.86 131.578 56.14 131.418 55.34C131.29 54.508 131.194 53.9 131.13 53.516C130.81 54.636 130.202 55.66 129.306 56.588C128.41 57.484 127.194 57.932 125.658 57.932ZM128.058 53.084C128.474 53.084 128.858 52.988 129.21 52.796C129.594 52.572 129.93 52.316 130.218 52.028C130.506 51.74 130.714 51.484 130.842 51.26V43.532C130.138 43.948 129.466 44.364 128.826 44.78C128.218 45.196 127.674 45.66 127.194 46.172C126.746 46.652 126.394 47.18 126.138 47.756C125.914 48.332 125.802 49.004 125.802 49.772C125.802 50.796 125.994 51.612 126.378 52.22C126.794 52.796 127.354 53.084 128.058 53.084ZM149.665 57.932C147.457 57.932 145.777 57.148 144.625 55.58C143.505 54.012 142.945 51.5 142.945 48.044V39.548C142.945 37.628 143.153 35.9 143.569 34.364C144.017 32.828 144.721 31.612 145.681 30.716C146.641 29.788 147.937 29.324 149.569 29.324C150.561 29.324 151.473 29.532 152.305 29.948C153.169 30.332 153.953 30.844 154.657 31.484V18.62H161.185V57.5H154.657V55.532C153.921 56.268 153.137 56.86 152.305 57.308C151.473 57.724 150.593 57.932 149.665 57.932ZM152.065 53.42C152.417 53.42 152.817 53.34 153.265 53.18C153.713 53.02 154.177 52.796 154.657 52.508V34.7C154.273 34.444 153.857 34.236 153.409 34.076C152.961 33.884 152.497 33.788 152.017 33.788C151.089 33.788 150.433 34.22 150.049 35.084C149.697 35.916 149.521 36.94 149.521 38.156V48.524C149.521 49.452 149.585 50.284 149.713 51.02C149.841 51.756 150.081 52.348 150.433 52.796C150.817 53.212 151.361 53.42 152.065 53.42ZM167.985 57.5V18.62H174.465V57.5H167.985ZM189.487 57.932C187.407 57.932 185.711 57.548 184.399 56.78C183.087 55.98 182.111 54.828 181.471 53.324C180.863 51.788 180.559 49.948 180.559 47.804V39.452C180.559 37.244 180.863 35.388 181.471 33.884C182.111 32.38 183.087 31.244 184.399 30.476C185.743 29.708 187.439 29.324 189.487 29.324C191.695 29.324 193.407 29.74 194.623 30.572C195.871 31.404 196.751 32.62 197.263 34.22C197.807 35.788 198.079 37.708 198.079 39.98V43.916H187.039V49.388C187.039 50.284 187.119 51.02 187.279 51.596C187.471 52.172 187.759 52.588 188.143 52.844C188.527 53.1 188.991 53.228 189.535 53.228C190.111 53.228 190.575 53.1 190.927 52.844C191.279 52.556 191.535 52.156 191.695 51.644C191.855 51.1 191.935 50.428 191.935 49.628V47.324H198.031V49.196C198.031 52.012 197.327 54.172 195.919 55.676C194.511 57.18 192.367 57.932 189.487 57.932ZM187.039 40.7H191.935V38.06C191.935 37.1 191.855 36.332 191.695 35.756C191.535 35.148 191.279 34.716 190.927 34.46C190.575 34.172 190.079 34.028 189.439 34.028C188.863 34.028 188.399 34.172 188.047 34.46C187.695 34.748 187.439 35.228 187.279 35.9C187.119 36.572 187.039 37.532 187.039 38.78V40.7Z" fill="black"/>
</svg>
